# File created by Blade
# Date/Time:  Thu Jan 22 15:50:06 2015
#---------------------------------------------------------
:version 1.10
:name HOM
:units
  mass 1.0
  length 1.000000
  angle deg
:documentation
     Acclaim Skeleton File
:root
   axis xyz
   order TX TY TZ RX RY RZ
   position 0.000000 0.000000 0.000000
   orientation 0 0 0
:bonedata
   begin
      id 1
      name RightUpLeg_dum
      direction -1.000000 0.000000 0.000000
      length 3.766986
      axis 0.0 0.0 0.0 xyz
   end
   begin
      id 2
      name LeftUpLeg_dum
      direction 1.000000 0.000000 0.000000
      length 3.766986
      axis 0.0 0.0 0.0 xyz
   end
   begin
      id 3
      name Spine_dum
      direction 0.000000 1.000000 0.000000
      length 7.779697
      axis 0.0 0.0 0.0 xyz
   end
   begin
      id 4
      name RightUpLeg
      direction 0.000000 -1.000000 0.000000
      length 18.017682
      axis 0.0 0.0 0.0 xyz
      dof rx ry rz
   end
   begin
      id 5
      name RightLeg
      direction 0.000000 -1.000000 0.000000
      length 16.881075
      axis 0.0 0.0 0.0 xyz
      dof rx ry rz
   end
   begin
      id 6
      name RightFoot
      direction 0.000000 -0.258819 0.965926
      length 5.770812
      axis 15.0 0.0 0.0 xyz
      dof rx ry rz
   end
   begin
      id 7
      name RightToeBase
      direction 0.000000 0.000000 1.000000
      length 2.952750
      axis 0.0 0.0 0.0 xyz
      dof rx ry rz
   end
   begin
      id 8
      name LeftUpLeg
      direction 0.000000 -1.000000 0.000000
      length 18.017682
      axis 0.0 0.0 0.0 xyz
      dof rx ry rz
   end
   begin
      id 9
      name LeftLeg
      direction 0.000000 -1.000000 0.000000
      length 16.881075
      axis 0.0 0.0 0.0 xyz
      dof rx ry rz
   end
   begin
      id 10
      name LeftFoot
      direction 0.000000 -0.258819 0.965926
      length 5.770812
      axis 15.0 0.0 0.0 xyz
      dof rx ry rz
   end
   begin
      id 11
      name LeftToeBase
      direction 0.000000 0.000000 1.000000
      length 2.952750
      axis 0.0 0.0 0.0 xyz
      dof rx ry rz
   end
   begin
      id 12
      name Spine
      direction 0.000000 1.000000 0.000000
      length 0.000000
      axis 0.0 0.0 0.0 xyz
      dof rx ry rz
   end
   begin
      id 13
      name Spine_dum1
      direction 0.000000 1.000000 0.000000
      length 10.941760
      axis 0.0 0.0 0.0 xyz
   end
   begin
      id 14
      name Spine_dum2
      direction 0.000000 1.000000 0.000000
      length 10.941760
      axis 0.0 0.0 0.0 xyz
   end
   begin
      id 15
      name Spine_dum3
      direction 0.000000 1.000000 0.000000
      length 16.646042
      axis 0.0 0.0 0.0 xyz
   end
   begin
      id 16
      name RightShoulder
      direction -1.000000 0.000000 0.000000
      length 7.708937
      axis 0.0 0.0 90.0 xyz
      dof rx ry rz
   end
   begin
      id 17
      name RightArm
      direction -1.000000 0.000000 0.000000
      length 11.521345
      axis 0.0 0.0 90.0 xyz
      dof rx ry rz
   end
   begin
      id 18
      name RightForeArm
      direction -1.000000 0.000000 0.000000
      length 10.175898
      axis 0.0 0.0 90.0 xyz
      dof ry rz rx
   end
   begin
      id 19
      name RightHand
      direction -1.000000 0.000000 0.000000
      length 0.000000
      axis 0.0 0.0 90.0 xyz
      dof rx ry rz
   end
   begin
      id 20
      name RightHand_dum1
      direction -1.000000 0.000000 0.000000
      length 3.937000
      axis 0.0 0.0 90.0 xyz
   end
   begin
      id 21
      name RightHand_dum2
      direction 0.000000 0.000000 0.000000
      length 0.000000
      axis 0.0 0.0 90.0 xyz
   end
   begin
      id 22
      name RightHandThumb1
      direction 0.000000 0.000000 1.000000
      length 3.937000
      axis 0.0 0.0 90.0 xyz
      dof rx rz ry
   end
   begin
      id 23
      name LeftShoulder
      direction 1.000000 0.000000 0.000000
      length 7.708937
      axis 0.0 0.0 -90.0 xyz
      dof rx ry rz
   end
   begin
      id 24
      name LeftArm
      direction 1.000000 0.000000 0.000000
      length 11.521345
      axis 0.0 0.0 -90.0 xyz
      dof rx ry rz
   end
   begin
      id 25
      name LeftForeArm
      direction 1.000000 0.000000 0.000000
      length 10.175898
      axis 0.0 0.0 -90.0 xyz
      dof ry rz rx
   end
   begin
      id 26
      name LeftHand
      direction 1.000000 0.000000 0.000000
      length 0.000000
      axis 0.0 0.0 -90.0 xyz
      dof rx ry rz
   end
   begin
      id 27
      name LeftHand_dum1
      direction 1.000000 0.000000 0.000000
      length 3.937000
      axis 0.0 0.0 -90.0 xyz
   end
   begin
      id 28
      name LeftHand_dum2
      direction 0.000000 0.000000 0.000000
      length 0.000000
      axis 0.0 0.0 -90.0 xyz
   end
   begin
      id 29
      name LeftHandThumb1
      direction 0.000000 0.000000 1.000000
      length 3.937000
      axis 0.0 0.0 -90.0 xyz
      dof rx rz ry
   end
   begin
      id 30
      name Head
      direction 0.000000 1.000000 0.000000
      length 4.527550
      axis 0.0 0.0 0.0 xyz
      dof rx ry rz
   end
:hierarchy
   begin
      root RightUpLeg_dum LeftUpLeg_dum Spine_dum
      RightUpLeg_dum RightUpLeg
      LeftUpLeg_dum LeftUpLeg
      Spine_dum Spine
      RightUpLeg RightLeg
      RightLeg RightFoot
      RightFoot RightToeBase
      LeftUpLeg LeftLeg
      LeftLeg LeftFoot
      LeftFoot LeftToeBase
      Spine Spine_dum1 Spine_dum2 Spine_dum3
      Spine_dum1 RightShoulder
      Spine_dum2 LeftShoulder
      Spine_dum3 Head
      RightShoulder RightArm
      RightArm RightForeArm
      RightForeArm RightHand
      RightHand RightHand_dum1 RightHand_dum2
      RightHand_dum2 RightHandThumb1
      LeftShoulder LeftArm
      LeftArm LeftForeArm
      LeftForeArm LeftHand
      LeftHand LeftHand_dum1 LeftHand_dum2
      LeftHand_dum2 LeftHandThumb1
   end

# File created by Blade
# Date/Time:  Thu Jan 22 15:49:58 2015
# Frame Rate: 120.000 fps
#------------------------------------------------------
:FULLY-SPECIFIED
:DEGREES
412
root 3.100098 37.115752 5.256199 -3.733621 -5.394114 2.524324
RightUpLeg 11.430611 -4.880410 -5.453523
RightLeg -4.297225 -0.000000 0.000000
RightFoot -11.989736 -12.021375 16.381455
RightToeBase 14.070567 -0.000000 -0.000000
LeftUpLeg 10.804485 7.448649 2.086565
LeftLeg -1.633699 -0.000000 0.000000
LeftFoot -8.173529 8.043765 -17.290379
LeftToeBase 8.395217 -0.000000 -0.000000
Spine -0.166497 -4.674560 -4.037564
RightShoulder -5.451480 8.641807 -47.211429
RightArm 52.570427 69.989765 54.849382
RightForeArm 80.021282 -0.000000 124.048765
RightHand 19.226877 -0.000000 -5.543134
RightHandThumb1 -24.326973 -0.000000 -32.862282
LeftShoulder -30.070288 8.468103 35.378810
LeftArm 175.953469 -38.304116 -110.686428
LeftForeArm -24.102169 0.000000 146.374503
LeftHand -5.954918 -0.000000 -7.173026
LeftHandThumb1 -26.253704 0.000000 33.147579
Head 22.706255 10.376547 -2.278006
413
root 3.102373 37.118518 5.253045 -3.729670 -5.312438 2.525864
RightUpLeg 11.438441 -4.906627 -5.456888
RightLeg -4.302035 -0.000000 0.000000
RightFoot -11.970863 -12.065759 16.407009
RightToeBase 14.036738 -0.000000 -0.000000
LeftUpLeg 10.778318 7.434369 2.089239
LeftLeg -1.613496 -0.000000 0.000000
LeftFoot -8.144103 7.952647 -17.299077
LeftToeBase 8.430214 -0.000000 -0.000000
Spine -0.136296 -4.677382 -4.057250
RightShoulder -5.475608 8.687443 -47.164182
RightArm 52.544342 70.016623 54.875223
RightForeArm 79.906279 -0.000000 124.083953
RightHand 19.181656 -0.000000 -5.806027
RightHandThumb1 -24.326973 -0.000000 -32.862282
LeftShoulder -30.044525 8.427315 35.434070
LeftArm 176.004028 -38.331714 -110.725629
LeftForeArm -24.094314 -0.000000 146.363345
LeftHand -5.950034 -0.000000 -7.179113
LeftHandThumb1 -26.253704 0.000000 33.147579
Head 22.541453 10.335300 -2.195921
414
root 3.104665 37.120066 5.247718 -3.705277 -5.197504 2.529118
RightUpLeg 11.429045 -4.974901 -5.463408
RightLeg -4.304456 -0.000000 0.000000
RightFoot -11.967473 -12.104527 16.426680
RightToeBase 14.038213 -0.000000 -0.000000
LeftUpLeg 10.722941 7.376206 2.080316
LeftLeg -1.604388 -0.000000 0.000000
LeftFoot -8.112393 7.910968 -17.283879
LeftToeBase 8.376326 -0.000000 -0.000000
Spine -0.121062 -4.723046 -4.085947
RightShoulder -5.497012 8.769833 -47.112013
RightArm 52.427273 70.026620 54.781546
RightForeArm 79.832105 -0.000000 124.089136
RightHand 19.167995 -0.000000 -5.886298
RightHandThumb1 -24.326973 -0.000000 -32.862282
LeftShoulder -30.019591 8.369241 35.515529
LeftArm 176.048525 -38.378110 -110.785266
LeftForeArm -24.128887 0.000000 146.347972
LeftHand -5.910299 -0.000000 -7.289523
LeftHandThumb1 -26.253704 0.000000 33.147579
Head 22.401526 10.393262 -2.067635
415
root 3.106572 37.122068 5.240214 -3.675197 -5.101920 2.528877
RightUpLeg 11.411614 -5.006456 -5.453319
RightLeg -4.329235 -0.000000 0.000000
RightFoot -11.939655 -12.176771 16.398381
RightToeBase 13.997193 -0.000000 -0.000000
LeftUpLeg 10.660927 7.323381 2.071975
LeftLeg -1.590270 -0.000000 0.000000
LeftFoot -8.086331 7.883667 -17.230048
LeftToeBase 8.428712 -0.000000 -0.000000
Spine -0.093277 -4.750403 -4.103806
RightShoulder -5.564711 8.794028 -47.053648
RightArm 52.578709 70.037095 54.930603
RightForeArm 79.741827 -0.000000 124.093941
RightHand 19.143858 0.000000 -5.953202
RightHandThumb1 -24.326973 -0.000000 -32.862282
LeftShoulder -30.009445 8.285177 35.604483
LeftArm 176.081079 -38.351763 -110.831383
LeftForeArm -24.180165 0.000000 146.324154
LeftHand -5.953936 0.000000 -7.262172
LeftHandThumb1 -26.253704 0.000000 33.147579
Head 22.215372 10.465359 -1.974363
